<svg width="661" height="849" viewBox="0 0 661 849" fill="none" xmlns="http://www.w3.org/2000/svg">
<path d="M343.2 3.39492C343.867 5.52826 346.667 15.3949 349.333 25.2616C352 35.1283 359.867 62.7283 366.8 86.4616C373.733 110.195 379.2 129.795 378.933 130.195C378.533 130.462 370.933 125.395 361.733 118.995C352.667 112.595 327.467 94.5949 305.6 79.2616C209.2 11.1283 195.333 1.39492 195.333 1.79492C195.333 3.52826 244.533 81.1283 283.467 140.728C292.267 154.062 299.333 165.262 299.333 165.528C299.333 165.928 288.933 164.462 276.4 162.462C234.667 155.928 190.533 149.262 188.267 149.262C186.533 149.262 189.2 155.795 200.133 177.528C214 205.262 241.733 258.862 250.933 275.662L255.467 283.928L267.067 273.928C273.333 268.328 282.8 260.995 288 257.528C298.4 250.595 324 237.262 327.067 237.262C328.667 237.262 328.8 240.462 328 260.195C326.8 286.595 326.933 332.862 328.133 339.128C328.933 344.062 329.467 344.328 358.933 357.395C368.533 361.795 377.6 365.262 378.933 365.262C380.267 365.262 387.6 363.662 395.333 361.662C407.2 358.728 412.4 358.195 428.933 358.062L448.4 357.928L463.733 365.662C472.267 369.928 486.8 377.795 496.267 383.128C505.6 388.462 522.533 397.928 533.733 404.062L554.267 415.262L553.467 421.662C551.067 439.395 538.8 456.062 521.067 465.528L516 468.195L528.133 467.528C549.467 466.195 572.267 456.995 588.8 442.728L595.6 436.862L605.067 440.995L614.4 445.262L622 436.862C633.067 424.595 647.333 408.328 654.4 399.528C661.733 390.462 661.867 389.662 658.667 361.262C655.6 334.195 648.133 295.928 646.4 297.795C646 298.195 644.133 303.128 642.133 308.862C638.4 320.062 630.4 335.262 626.4 338.995C623.333 341.662 626.933 343.662 581.067 314.862L546.4 293.128L545.6 284.195C545.067 279.262 544 268.995 543.2 261.395L541.6 247.528L496.133 190.862C471.067 159.795 435.2 114.995 416.133 91.3949C397.2 67.9283 378.933 45.1283 375.467 40.7283C370.267 34.1949 344.133 1.79492 342.533 0.0615885C342.267 -0.338411 342.533 1.26159 343.2 3.39492ZM414.667 211.662C457.733 235.928 495.333 258.728 497.2 261.662C501.2 268.062 518.133 301.528 517.733 302.062C517.333 302.328 511.467 298.328 504.533 293.262C493.6 285.128 491.467 284.062 488 284.728C465.333 289.662 453.867 291.395 452.8 290.062C452.133 289.262 445.467 276.328 438 261.262C430.533 246.195 423.467 232.862 422.267 231.395C421.067 230.062 414.667 224.862 408 219.928C389.867 206.462 380.267 198.462 375.2 192.728L370.667 187.395L381.333 193.128C387.2 196.328 402.267 204.728 414.667 211.662ZM619.6 364.595C627.2 366.995 627.2 367.128 629.867 374.862C631.867 380.595 632.133 382.862 630.933 383.262C630 383.528 625.067 384.595 619.733 385.662L610.133 387.528L605.333 379.662C602.667 375.395 597.2 368.328 593.2 364.062C589.2 359.795 586 355.928 586 355.528C586 354.862 605.867 360.328 619.6 364.595Z" fill="#3b82f6"/>
<path d="M165.333 222.062C130 230.462 82.4 252.862 49.3333 276.595C36.4 285.795 18.8 300.462 8 310.995L0 318.728L10 317.662C15.4667 317.128 29.8667 316.595 42 316.595C66.9333 316.728 86.8 319.395 104.8 325.128L116.133 328.862L120.533 313.262C129.2 282.328 147.2 250.995 170.133 226.995C177.467 219.395 177.333 219.262 165.333 222.062Z" fill="#3b82f6"/>
<path d="M194.533 233.928C151.733 282.328 131.467 345.928 140 405.395C146.933 454.195 168.8 495.262 209.2 535.262C243.067 568.862 285.733 599.262 339.2 627.795L354.4 635.928L353.6 619.528C351.6 579.528 340.4 558.328 293.333 506.595C263.067 473.262 247.6 451.395 237.467 427.128C222.267 390.595 222.667 347.395 238.533 312.462L243.467 301.928L231.867 280.728C225.6 268.995 216.4 251.795 211.333 242.328L202.4 225.128L194.533 233.928Z" fill="#3b82f6"/>
<path d="M288 294.995C266.533 316.462 257.067 342.195 258.4 374.595C258.933 388.195 261.867 405.528 263.867 407.528C264.133 407.795 268.8 407.262 274.133 406.328C279.6 405.528 294.267 404.728 306.8 404.728H329.467L323.2 396.328C303.067 369.795 295.6 344.462 296.933 306.328C297.333 295.528 297.467 286.595 297.067 286.595C296.667 286.595 292.667 290.328 288 294.995Z" fill="#3b82f6"/>
<path d="M107.867 369.528C106.267 371.128 100.133 379.395 94.1333 387.662C75.2 414.195 59.8667 449.128 52.6667 481.928C49.2 498.062 46 520.728 46 530.328V537.395L53.8667 528.328C63.4667 517.262 68 512.995 79.7333 504.195C96 491.795 118.667 480.062 130.267 477.928L135.067 476.995L131.2 468.328C119.867 443.128 113.067 413.395 111.467 382.862L110.667 366.328L107.867 369.528Z" fill="#3b82f6"/>
<path d="M293.467 436.062C286.267 436.595 280.133 437.395 279.867 437.528C279.6 437.795 282.533 442.062 286.133 446.995C292.267 455.128 301.6 465.795 337.733 505.662C351.467 520.862 363.2 535.928 369.2 546.195L373.733 553.928L383.6 555.662C405.467 559.662 444.667 573.262 469.067 585.395C486.933 594.328 510.933 609.262 519.067 616.462C522.667 619.662 522.667 619.395 519.467 605.928C509.2 563.395 484 520.328 452.933 492.328C416.933 459.795 385.067 443.928 342 437.262C324.533 434.462 315.2 434.328 293.467 436.062Z" fill="#3b82f6"/>
<path d="M169.6 538.328C174 550.462 177.067 569.662 176 578.595C174.933 588.462 170 598.062 162.4 605.928C155.733 612.595 139.467 623.928 128 629.528C115.867 635.662 89.4667 646.328 77.3333 650.062L65.4667 653.795L89.3333 658.728C174.133 676.195 248.133 710.728 302.133 757.928C306.8 761.928 310.933 765.262 311.333 765.262C313.467 765.262 331.2 730.728 337.467 714.195C341.467 703.795 350 673.262 350 669.395C350 668.728 348.8 667.662 347.2 667.262C342.933 665.928 312.533 648.728 294.667 637.528C248.8 608.995 213.6 580.062 176.533 540.595L166.533 529.928L169.6 538.328Z" fill="#3b82f6"/>
<path d="M387.867 602.195C389.867 616.595 390.267 651.928 388.667 664.728C386.533 682.062 382.8 700.195 379.333 710.462L376.4 718.728L385.733 729.662C412.267 760.995 429.867 798.862 440.133 846.462C440.8 849.528 441.467 849.128 450.8 839.795C462.4 828.462 477.867 808.462 486.133 794.328C500.267 770.195 512.667 729.928 512.667 707.795C512.667 701.528 496.8 648.595 493.333 643.128C489.867 637.662 452.933 618.195 428 608.595C413.067 602.862 391.6 595.928 388.667 595.928C387.467 595.928 387.2 597.662 387.867 602.195Z" fill="#3b82f6"/>
</svg>
